<svg width="23" height="23" viewBox="0 0 23 23" fill="none" xmlns="http://www.w3.org/2000/svg">
<g filter="url(#filter0_d_18_1078)">
<path d="M17.7096 8.87477C17.153 7.39725 16.3416 6.02884 15.3121 4.8318C13.5305 2.76943 11.1878 1.4375 9.34375 1.4375C9.2341 1.43758 9.12592 1.46275 9.0275 1.51108C8.92908 1.5594 8.84301 1.62961 8.7759 1.71632C8.70879 1.80303 8.6624 1.90394 8.6403 2.01134C8.61819 2.11874 8.62095 2.22977 8.64836 2.33594C9.27143 4.7168 7.97992 6.6965 6.61295 8.79211C5.48047 10.5279 4.3125 12.3207 4.3125 14.375C4.3125 18.338 7.53699 21.5625 11.5 21.5625C15.463 21.5625 18.6875 18.338 18.6875 14.375C18.6875 12.4299 18.3587 10.5796 17.7096 8.87477ZM12.9523 18.8083C12.4883 19.3025 11.9065 19.4062 11.5 19.4062C11.0935 19.4062 10.5117 19.3025 10.0477 18.8083C9.58363 18.3142 9.34375 17.5303 9.34375 16.5312C9.34375 15.4019 9.73996 14.5421 10.1227 13.7111C10.3451 13.2286 10.5719 12.7376 10.7067 12.212C10.721 12.1548 10.7491 12.1021 10.7886 12.0583C10.8282 12.0146 10.8778 11.9813 10.9332 11.9613C10.9887 11.9412 11.0482 11.9352 11.1065 11.9436C11.1648 11.952 11.2202 11.9746 11.2678 12.0094C11.6786 12.3273 12.0439 12.7 12.3535 13.1172C13.1697 14.1953 13.6562 15.472 13.6562 16.5312C13.6562 17.5303 13.4128 18.3178 12.9523 18.8083Z" fill="white"/>
<path d="M17.7096 8.87477C17.153 7.39725 16.3416 6.02884 15.3121 4.8318C13.5305 2.76943 11.1878 1.4375 9.34375 1.4375C9.2341 1.43758 9.12592 1.46275 9.0275 1.51108C8.92908 1.5594 8.84301 1.62961 8.7759 1.71632C8.70879 1.80303 8.6624 1.90394 8.6403 2.01134C8.61819 2.11874 8.62095 2.22977 8.64836 2.33594C9.27143 4.7168 7.97992 6.6965 6.61295 8.79211C5.48047 10.5279 4.3125 12.3207 4.3125 14.375C4.3125 18.338 7.53699 21.5625 11.5 21.5625C15.463 21.5625 18.6875 18.338 18.6875 14.375C18.6875 12.4299 18.3587 10.5796 17.7096 8.87477ZM12.9523 18.8083C12.4883 19.3025 11.9065 19.4062 11.5 19.4062C11.0935 19.4062 10.5117 19.3025 10.0477 18.8083C9.58363 18.3142 9.34375 17.5303 9.34375 16.5312C9.34375 15.4019 9.73996 14.5421 10.1227 13.7111C10.3451 13.2286 10.5719 12.7376 10.7067 12.212C10.721 12.1548 10.7491 12.1021 10.7886 12.0583C10.8282 12.0146 10.8778 11.9813 10.9332 11.9613C10.9887 11.9412 11.0482 11.9352 11.1065 11.9436C11.1648 11.952 11.2202 11.9746 11.2678 12.0094C11.6786 12.3273 12.0439 12.7 12.3535 13.1172C13.1697 14.1953 13.6562 15.472 13.6562 16.5312C13.6562 17.5303 13.4128 18.3178 12.9523 18.8083Z" stroke="white" stroke-width="1.5625"/>
</g>
<defs>
<filter id="filter0_d_18_1078" x="-0.46875" y="0.65625" width="23.9375" height="29.6875" filterUnits="userSpaceOnUse" color-interpolation-filters="sRGB">
<feFlood flood-opacity="0" result="BackgroundImageFix"/>
<feColorMatrix in="SourceAlpha" type="matrix" values="0 0 0 0 0 0 0 0 0 0 0 0 0 0 0 0 0 0 127 0" result="hardAlpha"/>
<feOffset dy="4"/>
<feGaussianBlur stdDeviation="2"/>
<feComposite in2="hardAlpha" operator="out"/>
<feColorMatrix type="matrix" values="0 0 0 0 0 0 0 0 0 0 0 0 0 0 0 0 0 0 0.25 0"/>
<feBlend mode="normal" in2="BackgroundImageFix" result="effect1_dropShadow_18_1078"/>
<feBlend mode="normal" in="SourceGraphic" in2="effect1_dropShadow_18_1078" result="shape"/>
</filter>
</defs>
</svg>
